<?xml version="1.0" encoding="UTF-8" standalone="no"?>
<svg
   xmlns:dc="http://purl.org/dc/elements/1.1/"
   xmlns:cc="http://creativecommons.org/ns#"
   xmlns:rdf="http://www.w3.org/1999/02/22-rdf-syntax-ns#"
   xmlns:svg="http://www.w3.org/2000/svg"
   xmlns="http://www.w3.org/2000/svg"
   xmlns:sodipodi="http://sodipodi.sourceforge.net/DTD/sodipodi-0.dtd"
   xmlns:inkscape="http://www.inkscape.org/namespaces/inkscape"
   inkscape:export-ydpi="299.70001"
   inkscape:export-xdpi="299.70001"
   inkscape:export-filename="/Users/jamesbickerstaff/Google Drive/PhD/Chapter 2 - Austroplatypus incompertus/Writing/Figures/Ai_COI_tree.png"
   inkscape:version="1.0beta1 (32d4812, 2019-09-19)"
   sodipodi:docname="AiCOI-output.tree.svg"
   id="svg1154"
   version="1.1"
   height="841.0"
   viewBox="0 0 775.0 841.0"
   width="775.0"
   style="fill-opacity:1; color-rendering:auto; color-interpolation:auto; text-rendering:auto; stroke:black; stroke-linecap:square; stroke-miterlimit:10; shape-rendering:auto; stroke-opacity:1; fill:black; stroke-dasharray:none; font-weight:normal; stroke-width:1; font-family:'Dialog'; font-style:normal; stroke-linejoin:miter; font-size:12; stroke-dashoffset:0; image-rendering:auto;">
  <metadata
     id="metadata1158">
    <rdf:RDF>
      <cc:Work
         rdf:about="">
        <dc:format>image/svg+xml</dc:format>
        <dc:type
           rdf:resource="http://purl.org/dc/dcmitype/StillImage" />
      </cc:Work>
    </rdf:RDF>
  </metadata>
  <sodipodi:namedview
     inkscape:current-layer="svg1154"
     inkscape:window-maximized="0"
     inkscape:window-y="25"
     inkscape:window-x="1"
     inkscape:cy="395.44973"
     inkscape:cx="429.97035"
     inkscape:zoom="0.87"
     showgrid="false"
     id="namedview1156"
     inkscape:window-height="1027"
     inkscape:window-width="1920"
     inkscape:pageshadow="2"
     inkscape:pageopacity="0"
     guidetolerance="10"
     gridtolerance="10"
     objecttolerance="10"
     borderopacity="1"
     inkscape:document-rotation="0"
     bordercolor="#666666"
     pagecolor="#ffffff" />
  <!--Generated by the Batik Graphics2D SVG Generator-->
  <defs
     id="genericDefs" />
  <g
     id="g1152">
    <g
       id="g946"
       style="text-rendering:optimizeLegibility; stroke-width:2; font-family:sans-serif; stroke-linecap:butt; stroke-linejoin:bevel;"
       transform="translate(6,6)">
      <line
         id="line834"
         y1="808"
         x2="387.6699"
         x1="292.3011"
         style="fill:none;"
         y2="808" />
      <text
         id="text836"
         style="stroke:none;font-size:16px"
         y="826"
         xml:space="preserve"
         x="326.7052"><tspan
           id="tspan1160"
           style="font-style:normal;font-variant:normal;font-weight:normal;font-stretch:normal;font-family:Arial;-inkscape-font-specification:Arial;">0.02</tspan></text>
      <path
         id="path838"
         style="stroke-linejoin:miter; fill:none;"
         d="M637.0561 570.0096 L609.959 570.0096 L609.959 613.4519" />
      <path
         id="path840"
         style="stroke-linejoin:miter; fill:none;"
         d="M679 302.1154 L670.9692 302.1154 L670.9692 287.6346" />
      <path
         id="path842"
         style="stroke-linejoin:miter; fill:none;"
         d="M673.7689 461.4038 L666.0074 461.4038 L666.0074 483.125" />
      <path
         id="path844"
         style="stroke-linejoin:miter; fill:none;"
         d="M679 562.7692 L671.1687 562.7692 L671.1687 548.2885" />
      <path
         id="path846"
         style="stroke-linejoin:miter; fill:none;"
         d="M661.1806 722.0577 L549.3809 722.0577 L549.3809 614.357" />
      <path
         id="path848"
         style="stroke-linejoin:miter; fill:none;"
         d="M679 244.1923 L670.9913 244.1923 L670.9913 229.7115" />
      <path
         id="path850"
         style="stroke-linejoin:miter; fill:none;"
         d="M549.3809 614.357 L270.9402 614.357 L270.9402 350.5355" />
      <path
         id="path852"
         style="stroke-linejoin:miter; fill:none;"
         d="M679 70.4231 L658.3846 70.4231 L658.3846 48.7019" />
      <path
         id="path854"
         style="stroke-linejoin:miter; fill:none;"
         d="M679 331.0769 L664.0174 331.0769 L664.0174 345.5577" />
      <path
         id="path856"
         style="stroke-linejoin:miter; fill:none;"
         d="M671.7379 26.9808 L658.3846 26.9808 L658.3846 48.7019" />
      <path
         id="path858"
         style="stroke-linejoin:miter; fill:none;"
         d="M670.9692 287.6346 L668.5081 287.6346 L668.5081 258.6731" />
      <path
         id="path860"
         style="stroke-linejoin:miter; fill:none;"
         d="M679 360.0385 L664.0174 360.0385 L664.0174 345.5577" />
      <path
         id="path862"
         style="stroke-linejoin:miter; fill:none;"
         d="M609.959 613.4519 L598.437 613.4519 L598.437 506.6562" />
      <path
         id="path864"
         style="stroke-linejoin:miter; fill:none;"
         d="M673.9074 171.7885 L672.9424 171.7885 L672.9424 150.0673" />
      <path
         id="path866"
         style="stroke-linejoin:miter; fill:none;"
         d="M679 765.5 L7.6841 765.5 L7.6841 558.0177" />
      <path
         id="path868"
         style="stroke-linejoin:miter; fill:none;"
         d="M679 99.3846 L650.706 99.3846 L650.706 124.726" />
      <path
         id="path870"
         style="stroke-linejoin:miter; fill:none;"
         d="M679 128.3462 L672.9424 128.3462 L672.9424 150.0673" />
      <path
         id="path872"
         style="stroke-linejoin:miter; fill:none;"
         d="M658.3846 48.7019 L578.6089 48.7019 L578.6089 86.7139" />
      <path
         id="path874"
         style="stroke-linejoin:miter; fill:none;"
         d="M679 12.5 L671.7379 12.5 L671.7379 26.9808" />
      <path
         id="path876"
         style="stroke-linejoin:miter; fill:none;"
         d="M650.706 124.726 L578.6089 124.726 L578.6089 86.7139" />
      <path
         id="path878"
         style="stroke-linejoin:miter; fill:none;"
         d="M679 533.8077 L671.1687 533.8077 L671.1687 548.2885" />
      <path
         id="path880"
         style="stroke-linejoin:miter; fill:none;"
         d="M652.7936 316.5962 L633.0211 316.5962 L633.0211 399.8606" />
      <path
         id="path882"
         style="stroke-linejoin:miter; fill:none;"
         d="M679 273.1538 L670.9692 273.1538 L670.9692 287.6346" />
      <path
         id="path884"
         style="stroke-linejoin:miter; fill:none;"
         d="M668.0744 635.1731 L658.7832 635.1731 L658.7832 656.8942" />
      <path
         id="path886"
         style="stroke-linejoin:miter; fill:none;"
         d="M598.437 506.6562 L549.3809 506.6562 L549.3809 614.357" />
      <path
         id="path888"
         style="stroke-linejoin:miter; fill:none;"
         d="M671.1687 548.2885 L637.0561 548.2885 L637.0561 570.0096" />
      <path
         id="path890"
         style="stroke-linejoin:miter; fill:none;"
         d="M270.9402 350.5355 L7.6841 350.5355 L7.6841 558.0177" />
      <path
         id="path892"
         style="stroke-linejoin:miter; fill:none;"
         d="M672.9424 150.0673 L650.706 150.0673 L650.706 124.726" />
      <path
         id="path894"
         style="stroke-linejoin:miter; fill:none;"
         d="M664.0174 345.5577 L655.9692 345.5577 L655.9692 374.5192" />
      <path
         id="path896"
         style="stroke-linejoin:miter; fill:none;"
         d="M670.9913 229.7115 L668.5081 229.7115 L668.5081 258.6731" />
      <path
         id="path898"
         style="stroke-linejoin:miter; fill:none;"
         d="M679 446.9231 L673.7689 446.9231 L673.7689 461.4038" />
      <path
         id="path900"
         style="stroke-linejoin:miter; fill:none;"
         d="M658.7832 656.8942 L609.959 656.8942 L609.959 613.4519" />
      <path
         id="path902"
         style="stroke-linejoin:miter; fill:none;"
         d="M655.9692 374.5192 L652.7936 374.5192 L652.7936 316.5962" />
      <path
         id="path904"
         style="stroke-linejoin:miter; fill:none;"
         d="M679 475.8846 L673.7689 475.8846 L673.7689 461.4038" />
      <path
         id="path906"
         style="stroke-linejoin:miter; fill:none;"
         d="M578.6089 86.7139 L270.9402 86.7139 L270.9402 350.5355" />
      <path
         id="path908"
         style="stroke-linejoin:miter; fill:none;"
         d="M679 707.5769 L661.1806 707.5769 L661.1806 722.0577" />
      <path
         id="path910"
         style="stroke-linejoin:miter; fill:none;"
         d="M679 504.8462 L666.0074 504.8462 L666.0074 483.125" />
      <path
         id="path912"
         style="stroke-linejoin:miter; fill:none;"
         d="M679 215.2308 L670.9913 215.2308 L670.9913 229.7115" />
      <path
         id="path914"
         style="stroke-linejoin:miter; fill:none;"
         d="M679 417.9615 L674.0771 417.9615 L674.0771 403.4808" />
      <path
         id="path916"
         style="stroke-linejoin:miter; fill:none;"
         d="M668.5081 258.6731 L652.7936 258.6731 L652.7936 316.5962" />
      <path
         id="path918"
         style="stroke-linejoin:miter; fill:none;"
         d="M633.0211 399.8606 L598.437 399.8606 L598.437 506.6562" />
      <path
         id="path920"
         style="stroke-linejoin:miter; fill:none;"
         d="M0.971 558.0177 L7.6841 558.0177" />
      <path
         id="path922"
         style="stroke-linejoin:miter; fill:none;"
         d="M679 591.7308 L637.0561 591.7308 L637.0561 570.0096" />
      <path
         id="path924"
         style="stroke-linejoin:miter; fill:none;"
         d="M679 186.2692 L673.9074 186.2692 L673.9074 171.7885" />
      <path
         id="path926"
         style="stroke-linejoin:miter; fill:none;"
         d="M679 620.6923 L668.0744 620.6923 L668.0744 635.1731" />
      <path
         id="path928"
         style="stroke-linejoin:miter; fill:none;"
         d="M679 649.6539 L668.0744 649.6539 L668.0744 635.1731" />
      <path
         id="path930"
         style="stroke-linejoin:miter; fill:none;"
         d="M679 736.5385 L661.1806 736.5385 L661.1806 722.0577" />
      <path
         id="path932"
         style="stroke-linejoin:miter; fill:none;"
         d="M679 157.3077 L673.9074 157.3077 L673.9074 171.7885" />
      <path
         id="path934"
         style="stroke-linejoin:miter; fill:none;"
         d="M666.0074 483.125 L633.0211 483.125 L633.0211 399.8606" />
      <path
         id="path936"
         style="stroke-linejoin:miter; fill:none;"
         d="M679 678.6154 L658.7832 678.6154 L658.7832 656.8942" />
      <path
         id="path938"
         style="stroke-linejoin:miter; fill:none;"
         d="M679 389 L674.0771 389 L674.0771 403.4808" />
      <path
         id="path940"
         style="stroke-linejoin:miter; fill:none;"
         d="M679 41.4615 L671.7379 41.4615 L671.7379 26.9808" />
      <path
         id="path942"
         style="stroke-linejoin:miter; fill:none;"
         d="M674.0771 403.4808 L655.9692 403.4808 L655.9692 374.5192" />
      <text
         id="text944"
         xml:space="preserve"
         style="font-size:16; font-family:'Arial'; stroke-linejoin:miter; stroke:none;"
         transform="matrix(1,0,0,1,689,292.6154)"
         y="15"
         x="0">BT9c2</text>
    </g>
    <g
       id="g950"
       style="text-rendering:optimizeLegibility; stroke-width:2; font-size:16; font-family:'Arial'; stroke-linecap:butt;"
       transform="matrix(1,0,0,1,695,559.2692)">
      <text
         id="text948"
         style="stroke:none;"
         y="15"
         xml:space="preserve"
         x="0">BW26a1</text>
    </g>
    <g
       id="g954"
       style="text-rendering:optimizeLegibility; stroke-width:2; font-size:16; font-family:'Arial'; stroke-linecap:butt;"
       transform="matrix(1,0,0,1,695,240.6923)">
      <text
         id="text952"
         style="stroke:none;"
         y="15"
         xml:space="preserve"
         x="0">BT9c1</text>
    </g>
    <g
       id="g958"
       style="text-rendering:optimizeLegibility; stroke-width:2; font-size:16; font-family:'Arial'; stroke-linecap:butt;"
       transform="matrix(1,0,0,1,695,472.3846)">
      <text
         id="text956"
         style="stroke:none;"
         y="15"
         xml:space="preserve"
         x="0">Cu6a1</text>
    </g>
    <g
       id="g962"
       style="text-rendering:optimizeLegibility; stroke-width:2; font-size:16; font-family:'Arial'; stroke-linecap:butt;"
       transform="matrix(1,0,0,1,695,66.9231)">
      <text
         id="text960"
         style="stroke:none;"
         y="15"
         xml:space="preserve"
         x="0">Ke24d1</text>
    </g>
    <g
       id="g966"
       style="text-rendering:optimizeLegibility; stroke-width:2; font-size:16; font-family:'Arial'; stroke-linecap:butt;"
       transform="matrix(1,0,0,1,695,327.5769)">
      <text
         id="text964"
         style="stroke:none;"
         y="15"
         xml:space="preserve"
         x="0">MF2a1</text>
    </g>
    <g
       id="g970"
       style="text-rendering:optimizeLegibility; stroke-width:2; font-size:16; font-family:'Arial'; stroke-linecap:butt;"
       transform="matrix(1,0,0,1,695,704.0769)">
      <text
         id="text968"
         style="stroke:none;"
         y="15"
         xml:space="preserve"
         x="0">Te4a1</text>
    </g>
    <g
       id="g974"
       style="text-rendering:optimizeLegibility; stroke-width:2; font-size:16; font-family:'Arial'; stroke-linecap:butt;"
       transform="matrix(1,0,0,1,695,356.5385)">
      <text
         id="text972"
         style="stroke:none;"
         y="15"
         xml:space="preserve"
         x="0">MF6b1</text>
    </g>
    <g
       id="g978"
       style="text-rendering:optimizeLegibility; stroke-width:2; font-size:16; font-family:'Arial'; stroke-linecap:butt;"
       transform="matrix(1,0,0,1,695,501.3462)">
      <text
         id="text976"
         style="stroke:none;"
         y="15"
         xml:space="preserve"
         x="0">Ol18a1</text>
    </g>
    <g
       id="g982"
       style="text-rendering:optimizeLegibility; stroke-width:2; font-size:16; font-family:'Arial'; stroke-linecap:butt;"
       transform="matrix(1,0,0,1,695,211.7308)">
      <text
         id="text980"
         style="stroke:none;"
         y="15"
         xml:space="preserve"
         x="0">BT10a1</text>
    </g>
    <g
       id="g986"
       style="text-rendering:optimizeLegibility; stroke-width:2; font-size:16; font-family:'Arial'; stroke-linecap:butt;"
       transform="matrix(1,0,0,1,695,414.4615)">
      <text
         id="text984"
         style="stroke:none;"
         y="15"
         xml:space="preserve"
         x="0">MW4a2</text>
    </g>
    <g
       id="g990"
       style="text-rendering:optimizeLegibility; stroke-width:2; font-size:16; font-family:'Arial'; stroke-linecap:butt;"
       transform="matrix(1,0,0,1,695,762)">
      <text
         id="text988"
         style="stroke:none;"
         y="15"
         xml:space="preserve"
         x="0">SSFPom1</text>
    </g>
    <g
       id="g994"
       style="text-rendering:optimizeLegibility; stroke-width:2; font-size:16; font-family:'Arial'; stroke-linecap:butt;"
       transform="matrix(1,0,0,1,695,95.8846)">
      <text
         id="text992"
         style="stroke:none;"
         y="15"
         xml:space="preserve"
         x="0">WW4a1</text>
    </g>
    <g
       id="g998"
       style="text-rendering:optimizeLegibility; stroke-width:2; font-size:16; font-family:'Arial'; stroke-linecap:butt;"
       transform="matrix(1,0,0,1,695,124.8462)">
      <text
         id="text996"
         style="stroke:none;"
         y="15"
         xml:space="preserve"
         x="0">BT4a1</text>
    </g>
    <g
       id="g1002"
       style="text-rendering:optimizeLegibility; stroke-width:2; font-size:16; font-family:'Arial'; stroke-linecap:butt;"
       transform="matrix(1,0,0,1,695,588.2308)">
      <text
         id="text1000"
         style="stroke:none;"
         y="15"
         xml:space="preserve"
         x="0">BW19d1</text>
    </g>
    <g
       id="g1006"
       style="text-rendering:optimizeLegibility; stroke-width:2; font-size:16; font-family:'Arial'; stroke-linecap:butt;"
       transform="matrix(1,0,0,1,695,182.7692)">
      <text
         id="text1004"
         style="stroke:none;"
         y="15"
         xml:space="preserve"
         x="0">BT6a1</text>
    </g>
    <g
       id="g1010"
       style="text-rendering:optimizeLegibility; stroke-width:2; font-size:16; font-family:'Arial'; stroke-linecap:butt;"
       transform="matrix(1,0,0,1,695,9)">
      <text
         id="text1008"
         style="stroke:none;"
         y="15"
         xml:space="preserve"
         x="0">Do3a1</text>
    </g>
    <g
       id="g1014"
       style="text-rendering:optimizeLegibility; stroke-width:2; font-size:16; font-family:'Arial'; stroke-linecap:butt;"
       transform="matrix(1,0,0,1,695,617.1923)">
      <text
         id="text1012"
         style="stroke:none;"
         y="15"
         xml:space="preserve"
         x="0">Da1a1</text>
    </g>
    <g
       id="g1018"
       style="text-rendering:optimizeLegibility; stroke-width:2; font-size:16; font-family:'Arial'; stroke-linecap:butt;"
       transform="matrix(1,0,0,1,695,530.3077)">
      <text
         id="text1016"
         style="stroke:none;"
         y="15"
         xml:space="preserve"
         x="0">BW11a1</text>
    </g>
    <g
       id="g1022"
       style="text-rendering:optimizeLegibility; stroke-width:2; font-size:16; font-family:'Arial'; stroke-linecap:butt;"
       transform="matrix(1,0,0,1,695,646.1538)">
      <text
         id="text1020"
         style="stroke:none;"
         y="15"
         xml:space="preserve"
         x="0">Da24a1</text>
    </g>
    <g
       id="g1026"
       style="text-rendering:optimizeLegibility; stroke-width:2; font-size:16; font-family:'Arial'; stroke-linecap:butt;"
       transform="matrix(1,0,0,1,695,733.0385)">
      <text
         id="text1024"
         style="stroke:none;"
         y="15"
         xml:space="preserve"
         x="0">Te6a1</text>
    </g>
    <g
       id="g1030"
       style="text-rendering:optimizeLegibility; stroke-width:2; font-size:16; font-family:'Arial'; stroke-linecap:butt;"
       transform="matrix(1,0,0,1,695,269.6538)">
      <text
         id="text1028"
         style="stroke:none;"
         y="15"
         xml:space="preserve"
         x="0">BT8a1</text>
    </g>
    <g
       id="g1034"
       style="text-rendering:optimizeLegibility; stroke-width:2; font-size:16; font-family:'Arial'; stroke-linecap:butt;"
       transform="matrix(1,0,0,1,695,153.8077)">
      <text
         id="text1032"
         style="stroke:none;"
         y="15"
         xml:space="preserve"
         x="0">BT4a2</text>
    </g>
    <g
       id="g1038"
       style="text-rendering:optimizeLegibility; stroke-width:2; font-size:16; font-family:'Arial'; stroke-linecap:butt;"
       transform="matrix(1,0,0,1,695,675.1154)">
      <text
         id="text1036"
         style="stroke:none;"
         y="15"
         xml:space="preserve"
         x="0">Da7b1</text>
    </g>
    <g
       id="g1042"
       style="text-rendering:optimizeLegibility; stroke-width:2; font-size:16; font-family:'Arial'; stroke-linecap:butt;"
       transform="matrix(1,0,0,1,695,385.5)">
      <text
         id="text1040"
         style="stroke:none;"
         y="15"
         xml:space="preserve"
         x="0">MW3a1</text>
    </g>
    <g
       id="g1046"
       style="text-rendering:optimizeLegibility; stroke-width:2; font-size:16; font-family:'Arial'; stroke-linecap:butt;"
       transform="matrix(1,0,0,1,695,37.9615)">
      <text
         id="text1044"
         style="stroke:none;"
         y="15"
         xml:space="preserve"
         x="0">Do6b1</text>
    </g>
    <g
       id="g1050"
       style="text-rendering:optimizeLegibility; stroke-width:2; font-size:16; font-family:'Arial'; stroke-linecap:butt;"
       transform="matrix(1,0,0,1,695,443.4231)">
      <text
         id="text1048"
         style="stroke:none;"
         y="15"
         xml:space="preserve"
         x="0">Cu12a1</text>
    </g>
    <g
       id="g1054"
       transform="matrix(1,0,0,1,629.5075,569.0096)"
       style="text-rendering:optimizeLegibility; stroke-width:2; font-family:'Arial'; stroke-linecap:butt;">
      <text
         id="text1052"
         style="stroke:none"
         y="0.1367"
         xml:space="preserve"
         x="-11.6777" />
    </g>
    <g
       id="g1058"
       transform="matrix(1,0,0,1,675.8882,460.4039)"
       style="text-rendering:optimizeLegibility; stroke-width:2; font-family:'Arial'; stroke-linecap:butt;">
      <text
         id="text1056"
         style="stroke:none"
         y="0.1367"
         xml:space="preserve"
         x="-11.6777" />
    </g>
    <g
       id="g1062"
       transform="matrix(1,0,0,1,611.2808,721.0577)"
       style="text-rendering:optimizeLegibility; stroke-width:2; font-family:'Arial'; stroke-linecap:butt;">
      <text
         id="text1060"
         style="font-size:14.6667px;stroke:none"
         y="0.1367"
         xml:space="preserve"
         x="-3.3369" />
    </g>
    <g
       id="g1066"
       transform="matrix(1,0,0,1,416.1606,613.357)"
       style="text-rendering:optimizeLegibility; stroke-width:2; font-family:'Arial'; stroke-linecap:butt;">
      <text
         id="text1064"
         style="font-size:14.6667px;stroke:none"
         y="0.1367"
         xml:space="preserve"
         x="-3.3369" />
    </g>
    <g
       id="g1070"
       transform="matrix(1,0,0,1,671.0613,25.9808)"
       style="text-rendering:optimizeLegibility; stroke-width:2; font-family:'Arial'; stroke-linecap:butt;">
      <text
         id="text1068"
         style="stroke:none"
         y="0.1367"
         xml:space="preserve"
         x="-11.6777" />
    </g>
    <g
       id="g1074"
       transform="matrix(1,0,0,1,675.7386,286.6346)"
       style="text-rendering:optimizeLegibility; stroke-width:2; font-family:'Arial'; stroke-linecap:butt;">
      <text
         id="text1072"
         style="stroke:none"
         y="0.1367"
         xml:space="preserve"
         x="-11.6777" />
    </g>
    <g
       id="g1078"
       transform="matrix(1,0,0,1,610.198,612.4519)"
       style="text-rendering:optimizeLegibility; stroke-width:2; font-family:'Arial'; stroke-linecap:butt;">
      <text
         id="text1076"
         style="font-size:14.6667px;stroke:none"
         y="0.1367"
         xml:space="preserve"
         x="-39.337273" />
    </g>
    <g
       id="g1082"
       transform="matrix(1,0,0,1,679.4249,170.7885)"
       style="text-rendering:optimizeLegibility; stroke-width:2; font-family:'Arial'; stroke-linecap:butt;">
      <text
         id="text1080"
         style="stroke:none"
         y="0.1367"
         xml:space="preserve"
         x="-11.6777" />
    </g>
    <g
       id="g1086"
       transform="matrix(1,0,0,1,624.4968,47.7019)"
       style="text-rendering:optimizeLegibility; stroke-width:2; font-family:'Arial'; stroke-linecap:butt;">
      <text
         id="text1084"
         style="stroke:none"
         y="0.1367"
         xml:space="preserve"
         x="-3.3369" />
    </g>
    <g
       id="g1090"
       transform="matrix(1,0,0,1,620.6574,123.726)"
       style="text-rendering:optimizeLegibility; stroke-width:2; font-family:'Arial'; stroke-linecap:butt;">
      <text
         id="text1088"
         style="stroke:none"
         y="0.1367"
         xml:space="preserve"
         x="-3.3369" />
    </g>
    <g
       id="g1094"
       transform="matrix(1,0,0,1,648.9074,315.5961)"
       style="text-rendering:optimizeLegibility; stroke-width:2; font-family:'Arial'; stroke-linecap:butt;">
      <text
         id="text1092"
         style="stroke:none"
         y="0.1367"
         xml:space="preserve"
         x="-8.3408003" />
    </g>
    <g
       id="g1098"
       transform="matrix(1,0,0,1,669.4288,634.1731)"
       style="text-rendering:optimizeLegibility; stroke-width:2; font-family:'Arial'; stroke-linecap:butt;">
      <text
         id="text1096"
         style="font-size:14.6667px;stroke:none"
         y="-3.0547895"
         xml:space="preserve"
         x="-27.635147" />
    </g>
    <g
       id="g1102"
       transform="matrix(1,0,0,1,579.9089,505.6562)"
       style="text-rendering:optimizeLegibility; stroke-width:2; font-family:'Arial'; stroke-linecap:butt;">
      <text
         id="text1100"
         style="font-size:14.6667px;stroke:none"
         y="0.1367"
         xml:space="preserve"
         x="-11.6777" />
    </g>
    <g
       id="g1106"
       transform="matrix(1,0,0,1,660.1124,547.2884)"
       style="text-rendering:optimizeLegibility; stroke-width:2; font-family:'Arial'; stroke-linecap:butt;">
      <text
         id="text1104"
         style="stroke:none"
         y="0.1367"
         xml:space="preserve"
         x="-3.3369" />
    </g>
    <g
       id="g1110"
       transform="matrix(1,0,0,1,145.3122,349.5355)"
       style="text-rendering:optimizeLegibility; stroke-width:2; font-family:'Arial'; stroke-linecap:butt;">
      <text
         id="text1108"
         style="font-size:14.6667px;stroke:none"
         y="0.1367"
         xml:space="preserve"
         x="-3.3369" />
    </g>
    <g
       id="g1114"
       transform="matrix(1,0,0,1,667.8242,149.0673)"
       style="text-rendering:optimizeLegibility; stroke-width:2; font-family:'Arial'; stroke-linecap:butt;">
      <text
         id="text1112"
         style="stroke:none"
         y="0.1367"
         xml:space="preserve"
         x="-3.3369" />
    </g>
    <g
       id="g1118"
       transform="matrix(1,0,0,1,665.9933,344.5577)"
       style="text-rendering:optimizeLegibility; stroke-width:2; font-family:'Arial'; stroke-linecap:butt;">
      <text
         id="text1116"
         style="stroke:none"
         y="0.1367"
         xml:space="preserve"
         x="-8.3408003" />
    </g>
    <g
       id="g1122"
       transform="matrix(1,0,0,1,675.7497,228.7115)"
       style="text-rendering:optimizeLegibility; stroke-width:2; font-family:'Arial'; stroke-linecap:butt;">
      <text
         id="text1120"
         style="stroke:none"
         y="0.1367"
         xml:space="preserve"
         x="-11.6777" />
    </g>
    <g
       id="g1126"
       transform="matrix(1,0,0,1,640.3711,655.8942)"
       style="text-rendering:optimizeLegibility; stroke-width:2; font-family:'Arial'; stroke-linecap:butt;">
      <text
         id="text1124"
         style="font-size:14.6667px;stroke:none"
         y="0.1367"
         xml:space="preserve"
         x="-3.3369" />
    </g>
    <g
       id="g1130"
       transform="matrix(1,0,0,1,660.3814,373.5192)"
       style="text-rendering:optimizeLegibility; stroke-width:2; font-family:'Arial'; stroke-linecap:butt;">
      <text
         id="text1128"
         style="stroke:none"
         y="0.1367"
         xml:space="preserve"
         x="-11.6777" />
    </g>
    <g
       id="g1134"
       transform="matrix(1,0,0,1,430.7746,85.7139)"
       style="text-rendering:optimizeLegibility; stroke-width:2; font-family:'Arial'; stroke-linecap:butt;">
      <text
         id="text1132"
         style="stroke:none"
         y="0.1367"
         xml:space="preserve"
         x="-3.3369" />
    </g>
    <g
       id="g1138"
       transform="matrix(1,0,0,1,666.6508,257.6731)"
       style="text-rendering:optimizeLegibility; stroke-width:2; font-family:'Arial'; stroke-linecap:butt;">
      <text
         id="text1136"
         style="stroke:none"
         y="0.1367"
         xml:space="preserve"
         x="-8.3408003" />
    </g>
    <g
       id="g1142"
       transform="matrix(1,0,0,1,621.729,398.8606)"
       style="text-rendering:optimizeLegibility; stroke-width:2; font-family:'Arial'; stroke-linecap:butt;">
      <text
         id="text1140"
         style="stroke:none"
         y="0.1367"
         xml:space="preserve"
         x="-11.6777" />
    </g>
    <g
       id="g1146"
       transform="matrix(1,0,0,1,655.5142,482.125)"
       style="text-rendering:optimizeLegibility; stroke-width:2; font-family:'Arial'; stroke-linecap:butt;">
      <text
         id="text1144"
         style="stroke:none"
         y="0.1367"
         xml:space="preserve"
         x="-11.6777" />
    </g>
    <g
       id="g1150"
       transform="matrix(1,0,0,1,671.0232,402.4808)"
       style="text-rendering:optimizeLegibility; stroke-width:2; font-family:'Arial'; stroke-linecap:butt;">
      <text
         id="text1148"
         style="stroke:none"
         y="0.1367"
         xml:space="preserve"
         x="-3.3369" />
    </g>
  </g>
  <text
     id="text1164"
     y="741.48938"
     x="600"
     style="font-size:14.6667px;line-height:1.25;font-family:Arial;-inkscape-font-specification:Arial;letter-spacing:0px;word-spacing:0px;stroke-width:0;stroke-miterlimit:10;stroke-dasharray:none"
     xml:space="preserve"><tspan
       y="741.48938"
       x="600"
       id="tspan1162"
       sodipodi:role="line" /></text>
  <text
     id="text1168"
     y="635.10638"
     x="406.383"
     style="font-size:14.6667px;line-height:1.25;font-family:Arial;-inkscape-font-specification:Arial;letter-spacing:0px;word-spacing:0px;stroke-width:0;stroke-miterlimit:10;stroke-dasharray:none"
     xml:space="preserve"><tspan
       y="635.10638"
       x="406.383"
       id="tspan1166"
       sodipodi:role="line" /></text>
  <text
     id="text1172"
     y="526.59576"
     x="573.40424"
     style="font-size:14.6667px;line-height:1.25;font-family:Arial;-inkscape-font-specification:Arial;letter-spacing:0px;word-spacing:0px;stroke-width:0;stroke-miterlimit:10;stroke-dasharray:none"
     xml:space="preserve"><tspan
       y="526.59576"
       x="573.40424"
       id="tspan1170"
       sodipodi:role="line" /></text>
  <text
     id="text1176"
     y="630.85107"
     x="578.72339"
     style="font-size:14.6667px;line-height:1.25;font-family:Arial;-inkscape-font-specification:Arial;letter-spacing:0px;word-spacing:0px;stroke-width:0;stroke-miterlimit:10;stroke-dasharray:none"
     xml:space="preserve"><tspan
       y="630.85107"
       x="578.72339"
       id="tspan1174"
       sodipodi:role="line" /></text>
  <text
     id="text1180"
     y="674.46808"
     x="632.9787"
     style="font-size:14.6667px;line-height:1.25;font-family:Arial;-inkscape-font-specification:Arial;letter-spacing:0px;word-spacing:0px;stroke-width:0;stroke-miterlimit:10;stroke-dasharray:none"
     xml:space="preserve"><tspan
       y="674.46808"
       x="632.9787"
       id="tspan1178"
       sodipodi:role="line" /></text>
  <text
     id="text1188"
     y="592.55316"
     x="621.27661"
     style="font-size:14.6667px;line-height:1.25;font-family:Arial;-inkscape-font-specification:Arial;letter-spacing:0px;word-spacing:0px;stroke-width:0;stroke-miterlimit:10;stroke-dasharray:none"
     xml:space="preserve"><tspan
       y="592.55316"
       x="621.27661"
       id="tspan1186"
       sodipodi:role="line" /></text>
  <path
     d="m 283.42882,356.71277 a 6.9042573,6.9042573 0 0 1 -6.88317,6.90422 6.9042573,6.9042573 0 0 1 -6.92521,-6.86205 6.9042573,6.9042573 0 0 1 6.84086,-6.94614 6.9042573,6.9042573 0 0 1 6.96701,6.81962 z"
     sodipodi:arc-type="chord"
     sodipodi:open="true"
     sodipodi:end="6.270968"
     sodipodi:start="0"
     sodipodi:ry="6.9042573"
     sodipodi:rx="6.9042573"
     sodipodi:cy="356.71277"
     sodipodi:cx="276.52457"
     sodipodi:type="arc"
     id="path1212"
     style="fill:#808080;stroke-width:0;stroke-miterlimit:10;stroke-dasharray:none;paint-order:normal" />
  <path
     style="font-style:normal;font-weight:normal;font-size:12px;font-family:Dialog;color-interpolation:auto;fill:#000000;fill-opacity:1;stroke:#000000;stroke-width:0;stroke-linecap:square;stroke-linejoin:miter;stroke-miterlimit:10;stroke-dasharray:none;stroke-dashoffset:0;stroke-opacity:1;paint-order:normal;color-rendering:auto;image-rendering:auto;shape-rendering:auto;text-rendering:auto"
     id="path1212-1"
     sodipodi:type="arc"
     sodipodi:cx="555.3045"
     sodipodi:cy="620.44135"
     sodipodi:rx="6.9042573"
     sodipodi:ry="6.9042573"
     sodipodi:start="0"
     sodipodi:end="6.270968"
     sodipodi:open="true"
     sodipodi:arc-type="chord"
     d="m 562.20876,620.44135 a 6.9042573,6.9042573 0 0 1 -6.88317,6.90422 6.9042573,6.9042573 0 0 1 -6.92521,-6.86205 6.9042573,6.9042573 0 0 1 6.84086,-6.94614 6.9042573,6.9042573 0 0 1 6.96701,6.81962 z" />
  <path
     d="m 673.97256,728.51404 a 6.9042573,6.9042573 0 0 1 -6.88317,6.90422 6.9042573,6.9042573 0 0 1 -6.92522,-6.86205 6.9042573,6.9042573 0 0 1 6.84087,-6.94614 6.9042573,6.9042573 0 0 1 6.967,6.81962 z"
     sodipodi:arc-type="chord"
     sodipodi:open="true"
     sodipodi:end="6.270968"
     sodipodi:start="0"
     sodipodi:ry="6.9042573"
     sodipodi:rx="6.9042573"
     sodipodi:cy="728.51404"
     sodipodi:cx="667.0683"
     sodipodi:type="arc"
     id="path1212-1-3"
     style="font-style:normal;font-weight:normal;font-size:12px;font-family:Dialog;color-interpolation:auto;fill:#000000;fill-opacity:1;stroke:#000000;stroke-width:0;stroke-linecap:square;stroke-linejoin:miter;stroke-miterlimit:10;stroke-dasharray:none;stroke-dashoffset:0;stroke-opacity:1;paint-order:normal;color-rendering:auto;image-rendering:auto;shape-rendering:auto;text-rendering:auto" />
  <path
     style="font-style:normal;font-weight:normal;font-size:12px;font-family:Dialog;color-interpolation:auto;fill:#808080;fill-opacity:1;stroke:#000000;stroke-width:0;stroke-linecap:square;stroke-linejoin:miter;stroke-miterlimit:10;stroke-dasharray:none;stroke-dashoffset:0;stroke-opacity:1;paint-order:normal;color-rendering:auto;image-rendering:auto;shape-rendering:auto;text-rendering:auto"
     id="path1212-1-3-7"
     sodipodi:type="arc"
     sodipodi:cx="604.01605"
     sodipodi:cy="512.44983"
     sodipodi:rx="6.9042573"
     sodipodi:ry="6.9042573"
     sodipodi:start="0"
     sodipodi:end="6.270968"
     sodipodi:open="true"
     sodipodi:arc-type="chord"
     d="m 610.92031,512.44983 a 6.9042573,6.9042573 0 0 1 -6.88317,6.90422 6.9042573,6.9042573 0 0 1 -6.92522,-6.86205 6.9042573,6.9042573 0 0 1 6.84087,-6.94614 6.9042573,6.9042573 0 0 1 6.967,6.81962 z" />
  <path
     d="m 671.16128,663.4538 a 6.9042573,6.9042573 0 0 1 -6.88317,6.90422 6.9042573,6.9042573 0 0 1 -6.92522,-6.86205 6.9042573,6.9042573 0 0 1 6.84087,-6.94614 6.9042573,6.9042573 0 0 1 6.967,6.81962 z"
     sodipodi:arc-type="chord"
     sodipodi:open="true"
     sodipodi:end="6.270968"
     sodipodi:start="0"
     sodipodi:ry="6.9042573"
     sodipodi:rx="6.9042573"
     sodipodi:cy="663.4538"
     sodipodi:cx="664.25702"
     sodipodi:type="arc"
     id="path1212-1-1"
     style="font-style:normal;font-weight:normal;font-size:12px;font-family:Dialog;color-interpolation:auto;fill:#000000;fill-opacity:1;stroke:#000000;stroke-width:0;stroke-linecap:square;stroke-linejoin:miter;stroke-miterlimit:10;stroke-dasharray:none;stroke-dashoffset:0;stroke-opacity:1;paint-order:normal;color-rendering:auto;image-rendering:auto;shape-rendering:auto;text-rendering:auto" />
  <path
     d="m 682.40627,641.36542 a 6.9042573,6.9042573 0 0 1 -6.88317,6.90422 6.9042573,6.9042573 0 0 1 -6.92521,-6.86205 6.9042573,6.9042573 0 0 1 6.84086,-6.94614 6.9042573,6.9042573 0 0 1 6.96701,6.81962 z"
     sodipodi:arc-type="chord"
     sodipodi:open="true"
     sodipodi:end="6.270968"
     sodipodi:start="0"
     sodipodi:ry="6.9042573"
     sodipodi:rx="6.9042573"
     sodipodi:cy="641.36542"
     sodipodi:cx="675.50201"
     sodipodi:type="arc"
     id="path1212-1-3-7-5"
     style="font-style:normal;font-weight:normal;font-size:12px;font-family:Dialog;color-interpolation:auto;fill:#808080;fill-opacity:1;stroke:#000000;stroke-width:0;stroke-linecap:square;stroke-linejoin:miter;stroke-miterlimit:10;stroke-dasharray:none;stroke-dashoffset:0;stroke-opacity:1;paint-order:normal;color-rendering:auto;image-rendering:auto;shape-rendering:auto;text-rendering:auto" />
  <path
     style="font-style:normal;font-weight:normal;font-size:12px;font-family:Dialog;color-interpolation:auto;fill:#000000;fill-opacity:1;stroke:#000000;stroke-width:0;stroke-linecap:square;stroke-linejoin:miter;stroke-miterlimit:10;stroke-dasharray:none;stroke-dashoffset:0;stroke-opacity:1;paint-order:normal;color-rendering:auto;image-rendering:auto;shape-rendering:auto;text-rendering:auto"
     id="path1212-1-1-4"
     sodipodi:type="arc"
     sodipodi:cx="642.97186"
     sodipodi:cy="576.30524"
     sodipodi:rx="6.9042573"
     sodipodi:ry="6.9042573"
     sodipodi:start="0"
     sodipodi:end="6.270968"
     sodipodi:open="true"
     sodipodi:arc-type="chord"
     d="m 649.87612,576.30524 a 6.9042573,6.9042573 0 0 1 -6.88317,6.90422 6.9042573,6.9042573 0 0 1 -6.92522,-6.86205 6.9042573,6.9042573 0 0 1 6.84087,-6.94614 6.9042573,6.9042573 0 0 1 6.967,6.81962 z" />
  <path
     style="font-style:normal;font-weight:normal;font-size:12px;font-family:Dialog;color-interpolation:auto;fill:#000000;fill-opacity:1;stroke:#000000;stroke-width:0;stroke-linecap:square;stroke-linejoin:miter;stroke-miterlimit:10;stroke-dasharray:none;stroke-dashoffset:0;stroke-opacity:1;paint-order:normal;color-rendering:auto;image-rendering:auto;shape-rendering:auto;text-rendering:auto"
     id="path1212-1-1-3"
     sodipodi:type="arc"
     sodipodi:cx="677.3399"
     sodipodi:cy="555.0545"
     sodipodi:rx="6.9042573"
     sodipodi:ry="6.9042573"
     sodipodi:start="0"
     sodipodi:end="6.270968"
     sodipodi:open="true"
     sodipodi:arc-type="chord"
     d="m 684.24416,555.0545 a 6.9042573,6.9042573 0 0 1 -6.88317,6.90423 6.9042573,6.9042573 0 0 1 -6.92521,-6.86205 6.9042573,6.9042573 0 0 1 6.84086,-6.94614 6.9042573,6.9042573 0 0 1 6.96701,6.81962 z" />
  <path
     style="font-style:normal;font-weight:normal;font-size:12px;font-family:Dialog;color-interpolation:auto;fill:#000000;fill-opacity:1;stroke:#000000;stroke-width:0;stroke-linecap:square;stroke-linejoin:miter;stroke-miterlimit:10;stroke-dasharray:none;stroke-dashoffset:0;stroke-opacity:1;paint-order:normal;color-rendering:auto;image-rendering:auto;shape-rendering:auto;text-rendering:auto"
     id="path1212-1-1-6"
     sodipodi:type="arc"
     sodipodi:cx="638.81439"
     sodipodi:cy="405.52914"
     sodipodi:rx="6.9042573"
     sodipodi:ry="6.9042573"
     sodipodi:start="0"
     sodipodi:end="6.270968"
     sodipodi:open="true"
     sodipodi:arc-type="chord"
     d="m 645.71865,405.52914 a 6.9042573,6.9042573 0 0 1 -6.88317,6.90423 6.9042573,6.9042573 0 0 1 -6.92522,-6.86205 6.9042573,6.9042573 0 0 1 6.84087,-6.94614 6.9042573,6.9042573 0 0 1 6.967,6.81961 z" />
  <path
     style="font-style:normal;font-weight:normal;font-size:12px;font-family:Dialog;color-interpolation:auto;fill:#000000;fill-opacity:1;stroke:#000000;stroke-width:0;stroke-linecap:square;stroke-linejoin:miter;stroke-miterlimit:10;stroke-dasharray:none;stroke-dashoffset:0;stroke-opacity:1;paint-order:normal;color-rendering:auto;image-rendering:auto;shape-rendering:auto;text-rendering:auto"
     id="path1212-1-1-5"
     sodipodi:type="arc"
     sodipodi:cx="671.48596"
     sodipodi:cy="489.95984"
     sodipodi:rx="6.9042573"
     sodipodi:ry="6.9042573"
     sodipodi:start="0"
     sodipodi:end="6.270968"
     sodipodi:open="true"
     sodipodi:arc-type="chord"
     d="m 678.39022,489.95984 a 6.9042573,6.9042573 0 0 1 -6.88317,6.90422 6.9042573,6.9042573 0 0 1 -6.92522,-6.86205 6.9042573,6.9042573 0 0 1 6.84087,-6.94614 6.9042573,6.9042573 0 0 1 6.967,6.81962 z" />
  <path
     d="m 665.13717,322.89157 a 6.9042573,6.9042573 0 0 1 -6.88317,6.90423 6.9042573,6.9042573 0 0 1 -6.92522,-6.86205 6.9042573,6.9042573 0 0 1 6.84087,-6.94615 6.9042573,6.9042573 0 0 1 6.967,6.81962 z"
     sodipodi:arc-type="chord"
     sodipodi:open="true"
     sodipodi:end="6.270968"
     sodipodi:start="0"
     sodipodi:ry="6.9042573"
     sodipodi:rx="6.9042573"
     sodipodi:cy="322.89157"
     sodipodi:cx="658.23291"
     sodipodi:type="arc"
     id="path1212-1-3-7-9"
     style="font-style:normal;font-weight:normal;font-size:12px;font-family:Dialog;color-interpolation:auto;fill:#808080;fill-opacity:1;stroke:#000000;stroke-width:0;stroke-linecap:square;stroke-linejoin:miter;stroke-miterlimit:10;stroke-dasharray:none;stroke-dashoffset:0;stroke-opacity:1;paint-order:normal;color-rendering:auto;image-rendering:auto;shape-rendering:auto;text-rendering:auto" />
  <path
     d="m 686.82394,409.23694 a 6.9042573,6.9042573 0 0 1 -6.88317,6.90422 6.9042573,6.9042573 0 0 1 -6.92522,-6.86205 6.9042573,6.9042573 0 0 1 6.84087,-6.94614 6.9042573,6.9042573 0 0 1 6.967,6.81962 z"
     sodipodi:arc-type="chord"
     sodipodi:open="true"
     sodipodi:end="6.270968"
     sodipodi:start="0"
     sodipodi:ry="6.9042573"
     sodipodi:rx="6.9042573"
     sodipodi:cy="409.23694"
     sodipodi:cx="679.91968"
     sodipodi:type="arc"
     id="path1212-1-1-6-9"
     style="font-style:normal;font-weight:normal;font-size:12px;font-family:Dialog;color-interpolation:auto;fill:#000000;fill-opacity:1;stroke:#000000;stroke-width:0;stroke-linecap:square;stroke-linejoin:miter;stroke-miterlimit:10;stroke-dasharray:none;stroke-dashoffset:0;stroke-opacity:1;paint-order:normal;color-rendering:auto;image-rendering:auto;shape-rendering:auto;text-rendering:auto" />
  <path
     style="font-style:normal;font-weight:normal;font-size:12px;font-family:Dialog;color-interpolation:auto;fill:#808080;fill-opacity:1;stroke:#000000;stroke-width:0;stroke-linecap:square;stroke-linejoin:miter;stroke-miterlimit:10;stroke-dasharray:none;stroke-dashoffset:0;stroke-opacity:1;paint-order:normal;color-rendering:auto;image-rendering:auto;shape-rendering:auto;text-rendering:auto"
     id="path1212-1-3-7-9-7"
     sodipodi:type="arc"
     sodipodi:cx="673.89557"
     sodipodi:cy="264.25702"
     sodipodi:rx="6.9042573"
     sodipodi:ry="6.9042573"
     sodipodi:start="0"
     sodipodi:end="6.270968"
     sodipodi:open="true"
     sodipodi:arc-type="chord"
     d="m 680.79983,264.25702 a 6.9042573,6.9042573 0 0 1 -6.88317,6.90422 6.9042573,6.9042573 0 0 1 -6.92522,-6.86205 6.9042573,6.9042573 0 0 1 6.84087,-6.94614 6.9042573,6.9042573 0 0 1 6.967,6.81962 z" />
  <path
     d="m 590.70705,91.549301 a 6.9042573,6.9042573 0 0 1 -6.88317,6.904225 6.9042573,6.9042573 0 0 1 -6.92521,-6.862049 6.9042573,6.9042573 0 0 1 6.84086,-6.946143 6.9042573,6.9042573 0 0 1 6.96701,6.819618 z"
     sodipodi:arc-type="chord"
     sodipodi:open="true"
     sodipodi:end="6.270968"
     sodipodi:start="0"
     sodipodi:ry="6.9042573"
     sodipodi:rx="6.9042573"
     sodipodi:cy="91.549301"
     sodipodi:cx="583.8028"
     sodipodi:type="arc"
     id="path1212-1-1-6-8"
     style="font-style:normal;font-weight:normal;font-size:12px;font-family:Dialog;color-interpolation:auto;fill:#000000;fill-opacity:1;stroke:#000000;stroke-width:0;stroke-linecap:square;stroke-linejoin:miter;stroke-miterlimit:10;stroke-dasharray:none;stroke-dashoffset:0;stroke-opacity:1;paint-order:normal;color-rendering:auto;image-rendering:auto;shape-rendering:auto;text-rendering:auto" />
  <path
     d="m 663.94649,130.28169 a 6.9042573,6.9042573 0 0 1 -6.88317,6.90423 6.9042573,6.9042573 0 0 1 -6.92521,-6.86205 6.9042573,6.9042573 0 0 1 6.84086,-6.94614 6.9042573,6.9042573 0 0 1 6.96701,6.81961 z"
     sodipodi:arc-type="chord"
     sodipodi:open="true"
     sodipodi:end="6.270968"
     sodipodi:start="0"
     sodipodi:ry="6.9042573"
     sodipodi:rx="6.9042573"
     sodipodi:cy="130.28169"
     sodipodi:cx="657.04224"
     sodipodi:type="arc"
     id="path1212-1-1-6-83"
     style="font-style:normal;font-weight:normal;font-size:12px;font-family:Dialog;color-interpolation:auto;fill:#000000;fill-opacity:1;stroke:#000000;stroke-width:0;stroke-linecap:square;stroke-linejoin:miter;stroke-miterlimit:10;stroke-dasharray:none;stroke-dashoffset:0;stroke-opacity:1;paint-order:normal;color-rendering:auto;image-rendering:auto;shape-rendering:auto;text-rendering:auto" />
  <path
     d="m 686.1791,156.53601 a 6.9042573,6.9042573 0 0 1 -6.88317,6.90423 6.9042573,6.9042573 0 0 1 -6.92522,-6.86205 6.9042573,6.9042573 0 0 1 6.84087,-6.94615 6.9042573,6.9042573 0 0 1 6.967,6.81962 z"
     sodipodi:arc-type="chord"
     sodipodi:open="true"
     sodipodi:end="6.270968"
     sodipodi:start="0"
     sodipodi:ry="6.9042573"
     sodipodi:rx="6.9042573"
     sodipodi:cy="156.53601"
     sodipodi:cx="679.27484"
     sodipodi:type="arc"
     id="path1212-1-1-6-5"
     style="font-style:normal;font-weight:normal;font-size:12px;font-family:Dialog;color-interpolation:auto;fill:#000000;fill-opacity:1;stroke:#000000;stroke-width:0;stroke-linecap:square;stroke-linejoin:miter;stroke-miterlimit:10;stroke-dasharray:none;stroke-dashoffset:0;stroke-opacity:1;paint-order:normal;color-rendering:auto;image-rendering:auto;shape-rendering:auto;text-rendering:auto" />
  <path
     d="m 670.75967,55.020084 a 6.9042573,6.9042573 0 0 1 -6.88317,6.904225 6.9042573,6.9042573 0 0 1 -6.92522,-6.862049 6.9042573,6.9042573 0 0 1 6.84087,-6.946143 6.9042573,6.9042573 0 0 1 6.967,6.819618 z"
     sodipodi:arc-type="chord"
     sodipodi:open="true"
     sodipodi:end="6.270968"
     sodipodi:start="0"
     sodipodi:ry="6.9042573"
     sodipodi:rx="6.9042573"
     sodipodi:cy="55.020084"
     sodipodi:cx="663.85541"
     sodipodi:type="arc"
     id="path1212-1-3-7-9-7-2"
     style="font-style:normal;font-weight:normal;font-size:12px;font-family:Dialog;color-interpolation:auto;fill:#808080;fill-opacity:1;stroke:#000000;stroke-width:0;stroke-linecap:square;stroke-linejoin:miter;stroke-miterlimit:10;stroke-dasharray:none;stroke-dashoffset:0;stroke-opacity:1;paint-order:normal;color-rendering:auto;image-rendering:auto;shape-rendering:auto;text-rendering:auto" />
  <path
     style="font-style:normal;font-weight:normal;font-size:12px;font-family:Dialog;color-interpolation:auto;fill:#000000;fill-opacity:1;stroke:#000000;stroke-width:0;stroke-linecap:square;stroke-linejoin:miter;stroke-miterlimit:10;stroke-dasharray:none;stroke-dashoffset:0;stroke-opacity:1;paint-order:normal;color-rendering:auto;image-rendering:auto;shape-rendering:auto;text-rendering:auto"
     id="path1212-1-1-6-8-2"
     sodipodi:type="arc"
     sodipodi:cx="677.10846"
     sodipodi:cy="32.931728"
     sodipodi:rx="6.9042573"
     sodipodi:ry="6.9042573"
     sodipodi:start="0"
     sodipodi:end="6.270968"
     sodipodi:open="true"
     sodipodi:arc-type="chord"
     d="m 684.01272,32.931728 a 6.9042573,6.9042573 0 0 1 -6.88317,6.904225 6.9042573,6.9042573 0 0 1 -6.92522,-6.862049 6.9042573,6.9042573 0 0 1 6.84087,-6.946143 6.9042573,6.9042573 0 0 1 6.967,6.819618 z" />
</svg>
